<svg width="380" height="95" viewBox="0 0 380 95" fill="none" xmlns="http://www.w3.org/2000/svg">
<path d="M6.9 94.5C4.36667 94.5 2.56667 93.1667 1.5 90.5C0.5 87.8333 0 83.5667 0 77.7C0 69.0333 1.23333 60.8 3.7 53C4.3 51.0667 5.26667 49.6667 6.6 48.8C8 47.8667 9.93333 47.4 12.4 47.4C13.7333 47.4 14.6667 47.5667 15.2 47.9C15.7333 48.2333 16 48.8667 16 49.8C16 50.8667 15.5 53.2667 14.5 57C13.8333 59.6667 13.3 62 12.9 64C12.5 66 12.1667 68.4667 11.9 71.4C14.1 65.6667 16.5667 61 19.3 57.4C22.0333 53.8 24.7 51.2333 27.3 49.7C29.9667 48.1667 32.4 47.4 34.6 47.4C38.9333 47.4 41.1 49.5667 41.1 53.9C41.1 56.5 40.3667 61.2 38.9 68C37.6333 73.8 37 77.6333 37 79.5C37 82.1667 37.9667 83.5 39.9 83.5C41.2333 83.5 42.8 82.7 44.6 81.1C46.4667 79.4333 48.9333 76.7667 52 73.1C52.8 72.1667 53.7 71.7 54.7 71.7C55.5667 71.7 56.2333 72.1 56.7 72.9C57.2333 73.7 57.5 74.8 57.5 76.2C57.5 78.8667 56.8667 80.9333 55.6 82.4C52.7333 85.9333 49.6333 88.8333 46.3 91.1C43.0333 93.3667 39.3 94.5 35.1 94.5C31.7 94.5 29.1333 93.5333 27.4 91.6C25.6667 89.6 24.8 86.7333 24.8 83C24.8 81.1333 25.2667 77.8 26.2 73C27.0667 68.8 27.5 65.9 27.5 64.3C27.5 63.2333 27.1333 62.7 26.4 62.7C25.5333 62.7 24.3 63.8333 22.7 66.1C21.1667 68.3 19.5667 71.2333 17.9 74.9C16.3 78.5667 15 82.4333 14 86.5C13.2667 89.6333 12.4 91.7667 11.4 92.9C10.4667 93.9667 8.96667 94.5 6.9 94.5Z" fill="#464646"/>
<path d="M62.5094 40.8C59.7094 40.8 57.6094 40.1667 56.2094 38.9C54.8094 37.5667 54.1094 35.7333 54.1094 33.4C54.1094 31.0667 55.0094 29.1333 56.8094 27.6C58.676 26 60.976 25.2 63.7094 25.2C66.176 25.2 68.176 25.8 69.7094 27C71.2427 28.2 72.0094 29.9 72.0094 32.1C72.0094 34.7667 71.1427 36.9 69.4094 38.5C67.676 40.0333 65.376 40.8 62.5094 40.8ZM61.7094 94.5C57.376 94.5 54.2094 92.9667 52.2094 89.9C50.276 86.8333 49.3094 82.7667 49.3094 77.7C49.3094 74.7 49.676 70.8667 50.4094 66.2C51.2094 61.4667 52.2094 57.0667 53.4094 53C54.0094 50.8667 54.8094 49.4 55.8094 48.6C56.8094 47.8 58.4094 47.4 60.6094 47.4C64.0094 47.4 65.7094 48.5333 65.7094 50.8C65.7094 52.4667 65.076 56.3333 63.8094 62.4C62.2094 69.7333 61.4094 74.7 61.4094 77.3C61.4094 79.3 61.676 80.8333 62.2094 81.9C62.7427 82.9667 63.6427 83.5 64.9094 83.5C66.1094 83.5 67.6094 82.6667 69.4094 81C71.2094 79.3333 73.6094 76.7 76.6094 73.1C77.4094 72.1667 78.3094 71.7 79.3094 71.7C80.176 71.7 80.8427 72.1 81.3094 72.9C81.8427 73.7 82.1094 74.8 82.1094 76.2C82.1094 78.8667 81.476 80.9333 80.2094 82.4C73.6094 90.4667 67.4427 94.5 61.7094 94.5Z" fill="#464646"/>
<path d="M93.1188 94.5C86.5854 94.5 81.4854 92.6667 77.8187 89C74.2187 85.2667 72.4187 80.3667 72.4187 74.3C72.4187 68.9 73.4854 64.1667 75.6188 60.1C77.7521 56.0333 80.5187 52.9 83.9187 50.7C87.3187 48.5 90.8854 47.4 94.6188 47.4C98.2854 47.4 101.119 48.5 103.119 50.7C105.185 52.8333 106.219 55.6 106.219 59C106.219 61.8 105.585 64.1667 104.319 66.1C103.119 68.0333 101.519 69 99.5188 69C98.2521 69 97.2188 68.7 96.4188 68.1C95.6854 67.5 95.3187 66.6667 95.3187 65.6C95.3187 65.1333 95.3854 64.6 95.5188 64C95.6521 63.4 95.7521 62.9667 95.8187 62.7C96.1521 61.7 96.3188 60.7667 96.3188 59.9C96.3188 59.0333 96.0854 58.3667 95.6188 57.9C95.2188 57.4333 94.6187 57.2 93.8187 57.2C92.2854 57.2 90.8521 57.9 89.5188 59.3C88.1854 60.6333 87.1187 62.4667 86.3187 64.8C85.5187 67.1333 85.1188 69.7 85.1188 72.5C85.1188 80.2333 88.4854 84.1 95.2188 84.1C97.9521 84.1 100.885 83.2 104.019 81.4C107.219 79.5333 110.352 76.7667 113.419 73.1C114.219 72.1667 115.119 71.7 116.119 71.7C116.985 71.7 117.652 72.1 118.119 72.9C118.652 73.7 118.919 74.8 118.919 76.2C118.919 78.7333 118.285 80.8 117.019 82.4C113.885 86.2667 110.119 89.2667 105.719 91.4C101.385 93.4667 97.1854 94.5 93.1188 94.5Z" fill="#464646"/>
<path d="M155.435 71.7C156.302 71.7 156.968 72.1 157.435 72.9C157.968 73.7 158.235 74.8 158.235 76.2C158.235 78.8667 157.602 80.9333 156.335 82.4C153.868 85.4 150.368 88.1667 145.835 90.7C141.368 93.2333 136.568 94.5 131.435 94.5C124.435 94.5 119.002 92.6 115.135 88.8C111.268 85 109.335 79.8 109.335 73.2C109.335 68.6 110.302 64.3333 112.235 60.4C114.168 56.4 116.835 53.2333 120.235 50.9C123.702 48.5667 127.602 47.4 131.935 47.4C135.802 47.4 138.902 48.5667 141.235 50.9C143.568 53.1667 144.735 56.2667 144.735 60.2C144.735 64.8 143.068 68.7667 139.735 72.1C136.468 75.3667 130.902 77.9667 123.035 79.9C124.702 82.9667 127.868 84.5 132.535 84.5C135.535 84.5 138.935 83.4667 142.735 81.4C146.602 79.2667 149.935 76.5 152.735 73.1C153.535 72.1667 154.435 71.7 155.435 71.7ZM130.235 57.2C127.768 57.2 125.668 58.6333 123.935 61.5C122.268 64.3667 121.435 67.8333 121.435 71.9V72.1C125.368 71.1667 128.468 69.7667 130.735 67.9C133.002 66.0333 134.135 63.8667 134.135 61.4C134.135 60.1333 133.768 59.1333 133.035 58.4C132.368 57.6 131.435 57.2 130.235 57.2Z" fill="#464646"/>
<path d="M206.405 71.7C207.271 71.7 207.938 72.1 208.405 72.9C208.938 73.7 209.205 74.8 209.205 76.2C209.205 78.8667 208.571 80.9333 207.305 82.4C204.571 85.7333 201.571 88.6 198.305 91C195.038 93.3333 191.805 94.5 188.605 94.5C183.538 94.5 179.671 91.5333 177.005 85.6C174.205 89.1333 171.738 91.5 169.605 92.7C167.538 93.9 165.105 94.5 162.305 94.5C158.238 94.5 154.871 93 152.205 90C149.605 86.9333 148.305 82.9667 148.305 78.1C148.305 72.7667 149.438 67.8333 151.705 63.3C153.971 58.7 157.071 54.9667 161.005 52.1C165.005 49.1667 169.471 47.4333 174.405 46.9C175.671 33.9667 178.071 22.9333 181.605 13.8C185.205 4.59999 189.905 -7.62939e-06 195.705 -7.62939e-06C198.571 -7.62939e-06 200.938 1.29999 202.805 3.9C204.738 6.49999 205.705 10.4333 205.705 15.7C205.705 23.1667 203.871 31.9 200.205 41.9C196.538 51.9 191.638 62.1667 185.505 72.7C185.771 76.5667 186.338 79.3333 187.205 81C188.138 82.6667 189.305 83.5 190.705 83.5C192.505 83.5 194.338 82.7 196.205 81.1C198.071 79.5 200.571 76.8333 203.705 73.1C204.505 72.1667 205.405 71.7 206.405 71.7ZM194.605 9.79999C193.338 9.79999 192.071 12.0667 190.805 16.6C189.538 21.0667 188.438 26.9333 187.505 34.2C186.638 41.4667 186.005 49.0667 185.605 57C193.071 40.7333 196.805 27.6667 196.805 17.8C196.805 15.2667 196.571 13.3 196.105 11.9C195.705 10.5 195.205 9.79999 194.605 9.79999ZM165.805 84.4C167.071 84.4 168.338 83.9 169.605 82.9C170.871 81.8333 172.471 79.9 174.405 77.1C173.738 73.5 173.405 69.4667 173.405 65C173.405 63.4 173.471 60.8 173.605 57.2C169.938 58.3333 166.871 60.8 164.405 64.6C162.005 68.3333 160.805 72.5 160.805 77.1C160.805 81.9667 162.471 84.4 165.805 84.4Z" fill="#464646"/>
<path d="M252.07 63.3C252.936 63.3 253.603 63.7333 254.07 64.6C254.536 65.4667 254.77 66.5667 254.77 67.9C254.77 71.1 253.803 73 251.87 73.6C247.87 75 243.47 75.8 238.67 76C237.403 81.6 234.903 86.1 231.17 89.5C227.436 92.8333 223.203 94.5 218.47 94.5C214.47 94.5 211.036 93.5333 208.17 91.6C205.37 89.6667 203.236 87.1 201.77 83.9C200.303 80.7 199.57 77.2333 199.57 73.5C199.57 68.4333 200.536 63.9333 202.47 60C204.403 56 207.07 52.9 210.47 50.7C213.87 48.4333 217.636 47.3 221.77 47.3C226.836 47.3 230.903 49.0667 233.97 52.6C237.103 56.0667 238.936 60.3667 239.47 65.5C242.603 65.3 246.336 64.6333 250.67 63.5C251.203 63.3667 251.67 63.3 252.07 63.3ZM219.27 83.9C221.403 83.9 223.236 83.0333 224.77 81.3C226.37 79.5667 227.436 77.0667 227.97 73.8C225.903 72.4 224.303 70.5667 223.17 68.3C222.103 66.0333 221.57 63.6333 221.57 61.1C221.57 60.0333 221.67 58.9667 221.87 57.9H221.37C218.703 57.9 216.47 59.2 214.67 61.8C212.936 64.3333 212.07 67.9333 212.07 72.6C212.07 76.2667 212.77 79.0667 214.17 81C215.636 82.9333 217.336 83.9 219.27 83.9Z" fill="#464646"/>
<path d="M264.787 94.5C258.453 94.5 253.487 92.6667 249.887 89C246.353 85.2667 244.587 80.3667 244.587 74.3C244.587 68.9 245.653 64.1667 247.787 60.1C249.92 56.0333 252.687 52.9 256.087 50.7C259.487 48.5 263.053 47.4 266.787 47.4C270.453 47.4 273.287 48.5 275.287 50.7C277.353 52.8333 278.387 55.6 278.387 59C278.387 61.8 277.753 64.1667 276.487 66.1C275.287 68.0333 273.687 69 271.687 69C270.42 69 269.387 68.7 268.587 68.1C267.853 67.5 267.487 66.6667 267.487 65.6C267.487 65.1333 267.553 64.6 267.687 64C267.82 63.4 267.92 62.9667 267.987 62.7C268.32 61.7 268.487 60.7667 268.487 59.9C268.487 59.0333 268.253 58.3667 267.787 57.9C267.387 57.4333 266.787 57.2 265.987 57.2C264.453 57.2 263.02 57.9 261.687 59.3C260.353 60.6333 259.287 62.4667 258.487 64.8C257.687 67.1333 257.287 69.7 257.287 72.5C257.287 76.3 258.053 79.2 259.587 81.2C261.187 83.1333 263.42 84.1 266.287 84.1C268.553 84.1 270.62 83.4333 272.487 82.1C274.42 80.7667 276.32 78.8 278.187 76.2C278.987 75.2 279.887 74.7 280.887 74.7C281.753 74.7 282.42 75.1 282.887 75.9C283.42 76.7 283.687 77.8 283.687 79.2C283.687 81.6 283.12 83.6667 281.987 85.4C280.187 88.2 277.82 90.4333 274.887 92.1C271.953 93.7 268.587 94.5 264.787 94.5Z" fill="#464646"/>
<path d="M298.009 94.5C295.075 94.5 292.842 93.7 291.309 92.1C289.842 90.5 289.109 88.4 289.109 85.8C289.109 82.8 289.942 80.4 291.609 78.6C293.342 76.8 295.742 75.9 298.809 75.9C301.742 75.9 303.942 76.6333 305.409 78.1C306.942 79.5 307.709 81.6 307.709 84.4C307.709 87.4667 306.842 89.9333 305.109 91.8C303.375 93.6 301.009 94.5 298.009 94.5Z" fill="#464646"/>
<path d="M328.916 40.8C326.116 40.8 324.016 40.1667 322.616 38.9C321.216 37.5667 320.516 35.7333 320.516 33.4C320.516 31.0667 321.416 29.1333 323.216 27.6C325.082 26 327.382 25.2 330.116 25.2C332.582 25.2 334.582 25.8 336.116 27C337.649 28.2 338.416 29.9 338.416 32.1C338.416 34.7667 337.549 36.9 335.816 38.5C334.082 40.0333 331.782 40.8 328.916 40.8ZM328.116 94.5C323.782 94.5 320.616 92.9667 318.616 89.9C316.682 86.8333 315.716 82.7667 315.716 77.7C315.716 74.7 316.082 70.8667 316.816 66.2C317.616 61.4667 318.616 57.0667 319.816 53C320.416 50.8667 321.216 49.4 322.216 48.6C323.216 47.8 324.816 47.4 327.016 47.4C330.416 47.4 332.116 48.5333 332.116 50.8C332.116 52.4667 331.482 56.3333 330.216 62.4C328.616 69.7333 327.816 74.7 327.816 77.3C327.816 79.3 328.082 80.8333 328.616 81.9C329.149 82.9667 330.049 83.5 331.316 83.5C332.516 83.5 334.016 82.6667 335.816 81C337.616 79.3333 340.016 76.7 343.016 73.1C343.816 72.1667 344.716 71.7 345.716 71.7C346.582 71.7 347.249 72.1 347.716 72.9C348.249 73.7 348.516 74.8 348.516 76.2C348.516 78.8667 347.882 80.9333 346.616 82.4C340.016 90.4667 333.849 94.5 328.116 94.5Z" fill="#464646"/>
<path d="M357.325 94.5C353.392 94.5 350.025 93.5333 347.225 91.6C344.492 89.6 342.425 87 341.025 83.8C339.625 80.6 338.925 77.1667 338.925 73.5C338.925 68.4333 339.858 63.9333 341.725 60C343.658 56 346.258 52.9 349.525 50.7C352.792 48.4333 356.458 47.3 360.525 47.3C364.458 47.3 367.825 48.3 370.625 50.3C373.425 52.2333 375.525 54.8 376.925 58C378.325 61.2 379.025 64.6333 379.025 68.3C379.025 73.3667 378.058 77.9 376.125 81.9C374.192 85.8333 371.558 88.9333 368.225 91.2C364.958 93.4 361.325 94.5 357.325 94.5ZM358.425 83.7C360.692 83.7 362.592 82.4667 364.125 80C365.725 77.5333 366.525 73.9333 366.525 69.2C366.525 65.5333 365.858 62.7667 364.525 60.9C363.192 59.0333 361.592 58.1 359.725 58.1C357.325 58.1 355.325 59.3333 353.725 61.8C352.192 64.2 351.425 67.8 351.425 72.6C351.425 76.4 352.092 79.2 353.425 81C354.758 82.8 356.425 83.7 358.425 83.7Z" fill="#464646"/>
</svg>
