<svg width="994" height="331" viewBox="0 0 994 331" fill="none" xmlns="http://www.w3.org/2000/svg">
<path d="M24.65 330.75C15.7833 330.75 9.48333 326.083 5.75 316.75C2.25 307.417 0.5 292.483 0.5 271.95C0.5 241.617 4.81667 212.8 13.45 185.5C15.55 178.733 18.9333 173.833 23.6 170.8C28.5 167.533 35.2667 165.9 43.9 165.9C48.5667 165.9 51.8333 166.483 53.7 167.65C55.5667 168.817 56.5 171.033 56.5 174.3C56.5 178.033 54.75 186.433 51.25 199.5C48.9167 208.833 47.05 217 45.65 224C44.25 231 43.0833 239.633 42.15 249.9C49.85 229.833 58.4833 213.5 68.05 200.9C77.6167 188.3 86.95 179.317 96.05 173.95C105.383 168.583 113.9 165.9 121.6 165.9C136.767 165.9 144.35 173.483 144.35 188.65C144.35 197.75 141.783 214.2 136.65 238C132.217 258.3 130 271.717 130 278.25C130 287.583 133.383 292.25 140.15 292.25C144.817 292.25 150.3 289.45 156.6 283.85C163.133 278.017 171.767 268.683 182.5 255.85C185.3 252.583 188.45 250.95 191.95 250.95C194.983 250.95 197.317 252.35 198.95 255.15C200.817 257.95 201.75 261.8 201.75 266.7C201.75 276.033 199.533 283.267 195.1 288.4C185.067 300.767 174.217 310.917 162.55 318.85C151.117 326.783 138.05 330.75 123.35 330.75C111.45 330.75 102.467 327.367 96.4 320.6C90.3333 313.6 87.3 303.567 87.3 290.5C87.3 283.967 88.9333 272.3 92.2 255.5C95.2333 240.8 96.75 230.65 96.75 225.05C96.75 221.317 95.4667 219.45 92.9 219.45C89.8667 219.45 85.55 223.417 79.95 231.35C74.5833 239.05 68.9833 249.317 63.15 262.15C57.55 274.983 53 288.517 49.5 302.75C46.9333 313.717 43.9 321.183 40.4 325.15C37.1333 328.883 31.8833 330.75 24.65 330.75Z" fill="#464646"/>
<path d="M219.283 142.8C209.483 142.8 202.133 140.583 197.233 136.15C192.333 131.483 189.883 125.067 189.883 116.9C189.883 108.733 193.033 101.967 199.333 96.6C205.866 91 213.916 88.2 223.483 88.2C232.116 88.2 239.116 90.3 244.483 94.5C249.849 98.7 252.533 104.65 252.533 112.35C252.533 121.683 249.499 129.15 243.433 134.75C237.366 140.117 229.316 142.8 219.283 142.8ZM216.483 330.75C201.316 330.75 190.233 325.383 183.233 314.65C176.466 303.917 173.083 289.683 173.083 271.95C173.083 261.45 174.366 248.033 176.933 231.7C179.733 215.133 183.233 199.733 187.433 185.5C189.533 178.033 192.333 172.9 195.833 170.1C199.333 167.3 204.933 165.9 212.633 165.9C224.533 165.9 230.483 169.867 230.483 177.8C230.483 183.633 228.266 197.167 223.833 218.4C218.233 244.067 215.433 261.45 215.433 270.55C215.433 277.55 216.366 282.917 218.233 286.65C220.099 290.383 223.249 292.25 227.683 292.25C231.883 292.25 237.133 289.333 243.433 283.5C249.733 277.667 258.133 268.45 268.633 255.85C271.433 252.583 274.583 250.95 278.083 250.95C281.116 250.95 283.449 252.35 285.083 255.15C286.949 257.95 287.883 261.8 287.883 266.7C287.883 276.033 285.666 283.267 281.233 288.4C258.133 316.633 236.549 330.75 216.483 330.75Z" fill="#464646"/>
<path d="M326.416 330.75C303.549 330.75 285.699 324.333 272.866 311.5C260.266 298.433 253.966 281.283 253.966 260.05C253.966 241.15 257.699 224.583 265.166 210.35C272.632 196.117 282.316 185.15 294.216 177.45C306.116 169.75 318.599 165.9 331.666 165.9C344.499 165.9 354.416 169.75 361.416 177.45C368.649 184.917 372.266 194.6 372.266 206.5C372.266 216.3 370.049 224.583 365.616 231.35C361.416 238.117 355.816 241.5 348.816 241.5C344.382 241.5 340.766 240.45 337.966 238.35C335.399 236.25 334.116 233.333 334.116 229.6C334.116 227.967 334.349 226.1 334.816 224C335.282 221.9 335.632 220.383 335.866 219.45C337.032 215.95 337.616 212.683 337.616 209.65C337.616 206.617 336.799 204.283 335.166 202.65C333.766 201.017 331.666 200.2 328.866 200.2C323.499 200.2 318.482 202.65 313.816 207.55C309.149 212.217 305.416 218.633 302.616 226.8C299.816 234.967 298.416 243.95 298.416 253.75C298.416 280.817 310.199 294.35 333.766 294.35C343.332 294.35 353.599 291.2 364.566 284.9C375.766 278.367 386.732 268.683 397.466 255.85C400.266 252.583 403.416 250.95 406.916 250.95C409.949 250.95 412.282 252.35 413.916 255.15C415.782 257.95 416.716 261.8 416.716 266.7C416.716 275.567 414.499 282.8 410.066 288.4C399.099 301.933 385.916 312.433 370.516 319.9C355.349 327.133 340.649 330.75 326.416 330.75Z" fill="#464646"/>
<path d="M544.523 250.95C547.556 250.95 549.89 252.35 551.523 255.15C553.39 257.95 554.323 261.8 554.323 266.7C554.323 276.033 552.106 283.267 547.673 288.4C539.04 298.9 526.79 308.583 510.923 317.45C495.29 326.317 478.49 330.75 460.523 330.75C436.023 330.75 417.006 324.1 403.473 310.8C389.94 297.5 383.173 279.3 383.173 256.2C383.173 240.1 386.556 225.167 393.323 211.4C400.09 197.4 409.423 186.317 421.323 178.15C433.456 169.983 447.106 165.9 462.273 165.9C475.806 165.9 486.656 169.983 494.823 178.15C502.99 186.083 507.073 196.933 507.073 210.7C507.073 226.8 501.24 240.683 489.573 252.35C478.14 263.783 458.656 272.883 431.123 279.65C436.956 290.383 448.04 295.75 464.373 295.75C474.873 295.75 486.773 292.133 500.073 284.9C513.606 277.433 525.273 267.75 535.073 255.85C537.873 252.583 541.023 250.95 544.523 250.95ZM456.323 200.2C447.69 200.2 440.34 205.217 434.273 215.25C428.44 225.283 425.523 237.417 425.523 251.65V252.35C439.29 249.083 450.14 244.183 458.073 237.65C466.006 231.117 469.973 223.533 469.973 214.9C469.973 210.467 468.69 206.967 466.123 204.4C463.79 201.6 460.523 200.2 456.323 200.2Z" fill="#464646"/>
<path d="M722.916 250.95C725.95 250.95 728.283 252.35 729.916 255.15C731.783 257.95 732.716 261.8 732.716 266.7C732.716 276.033 730.5 283.267 726.066 288.4C716.5 300.067 706 310.1 694.566 318.5C683.133 326.667 671.816 330.75 660.616 330.75C642.883 330.75 629.35 320.367 620.016 299.6C610.216 311.967 601.583 320.25 594.116 324.45C586.883 328.65 578.366 330.75 568.566 330.75C554.333 330.75 542.55 325.5 533.216 315C524.116 304.267 519.566 290.383 519.566 273.35C519.566 254.683 523.533 237.417 531.466 221.55C539.4 205.45 550.25 192.383 564.016 182.35C578.016 172.083 593.65 166.017 610.916 164.15C615.35 118.883 623.75 80.2666 636.116 48.3C648.716 16.1 665.166 -3.05176e-05 685.466 -3.05176e-05C695.5 -3.05176e-05 703.783 4.54997 710.316 13.65C717.083 22.75 720.466 36.5166 720.466 54.95C720.466 81.0833 714.05 111.65 701.216 146.65C688.383 181.65 671.233 217.583 649.766 254.45C650.7 267.983 652.683 277.667 655.716 283.5C658.983 289.333 663.066 292.25 667.966 292.25C674.266 292.25 680.683 289.45 687.216 283.85C693.75 278.25 702.5 268.917 713.466 255.85C716.266 252.583 719.416 250.95 722.916 250.95ZM681.616 34.3C677.183 34.3 672.75 42.2333 668.316 58.1C663.883 73.7333 660.033 94.2666 656.766 119.7C653.733 145.133 651.516 171.733 650.116 199.5C676.25 142.567 689.316 96.8333 689.316 62.3C689.316 53.4333 688.5 46.55 686.866 41.65C685.466 36.75 683.716 34.3 681.616 34.3ZM580.816 295.4C585.25 295.4 589.683 293.65 594.116 290.15C598.55 286.417 604.15 279.65 610.916 269.85C608.583 257.25 607.416 243.133 607.416 227.5C607.416 221.9 607.65 212.8 608.116 200.2C595.283 204.167 584.55 212.8 575.916 226.1C567.516 239.167 563.316 253.75 563.316 269.85C563.316 286.883 569.15 295.4 580.816 295.4Z" fill="#464646"/>
<path d="M882.743 221.55C885.777 221.55 888.11 223.067 889.743 226.1C891.377 229.133 892.193 232.983 892.193 237.65C892.193 248.85 888.81 255.5 882.043 257.6C868.043 262.5 852.643 265.3 835.843 266C831.41 285.6 822.66 301.35 809.593 313.25C796.527 324.917 781.71 330.75 765.143 330.75C751.143 330.75 739.127 327.367 729.093 320.6C719.293 313.833 711.827 304.85 706.693 293.65C701.56 282.45 698.993 270.317 698.993 257.25C698.993 239.517 702.377 223.767 709.143 210C715.91 196 725.243 185.15 737.143 177.45C749.043 169.517 762.227 165.55 776.693 165.55C794.427 165.55 808.66 171.733 819.393 184.1C830.36 196.233 836.777 211.283 838.643 229.25C849.61 228.55 862.677 226.217 877.843 222.25C879.71 221.783 881.343 221.55 882.743 221.55ZM767.943 293.65C775.41 293.65 781.827 290.617 787.193 284.55C792.793 278.483 796.527 269.733 798.393 258.3C791.16 253.4 785.56 246.983 781.593 239.05C777.86 231.117 775.993 222.717 775.993 213.85C775.993 210.117 776.343 206.383 777.043 202.65H775.293C765.96 202.65 758.143 207.2 751.843 216.3C745.777 225.167 742.743 237.767 742.743 254.1C742.743 266.933 745.193 276.733 750.093 283.5C755.227 290.267 761.177 293.65 767.943 293.65Z" fill="#464646"/>
<path d="M927.254 330.75C905.087 330.75 887.704 324.333 875.104 311.5C862.737 298.433 856.554 281.283 856.554 260.05C856.554 241.15 860.287 224.583 867.754 210.35C875.22 196.117 884.904 185.15 896.804 177.45C908.704 169.75 921.187 165.9 934.254 165.9C947.087 165.9 957.004 169.75 964.004 177.45C971.237 184.917 974.854 194.6 974.854 206.5C974.854 216.3 972.637 224.583 968.203 231.35C964.003 238.117 958.404 241.5 951.404 241.5C946.97 241.5 943.354 240.45 940.554 238.35C937.987 236.25 936.703 233.333 936.703 229.6C936.703 227.967 936.937 226.1 937.404 224C937.87 221.9 938.22 220.383 938.453 219.45C939.62 215.95 940.204 212.683 940.204 209.65C940.204 206.617 939.387 204.283 937.754 202.65C936.354 201.017 934.253 200.2 931.453 200.2C926.087 200.2 921.07 202.65 916.404 207.55C911.737 212.217 908.003 218.633 905.203 226.8C902.403 234.967 901.004 243.95 901.004 253.75C901.004 267.05 903.687 277.2 909.054 284.2C914.654 290.967 922.47 294.35 932.504 294.35C940.437 294.35 947.67 292.017 954.204 287.35C960.97 282.683 967.62 275.8 974.154 266.7C976.954 263.2 980.104 261.45 983.604 261.45C986.637 261.45 988.97 262.85 990.604 265.65C992.47 268.45 993.404 272.3 993.404 277.2C993.404 285.6 991.42 292.833 987.453 298.9C981.153 308.7 972.87 316.517 962.604 322.35C952.337 327.95 940.554 330.75 927.254 330.75Z" fill="#464646"/>
</svg>
