<svg width="58" height="48" viewBox="0 0 58 48" fill="none" xmlns="http://www.w3.org/2000/svg">
<path d="M6.9 47.5C4.36667 47.5 2.56667 46.1667 1.5 43.5C0.5 40.8333 0 36.5667 0 30.7C0 22.0333 1.23333 13.8 3.7 5.99999C4.3 4.06666 5.26667 2.66666 6.6 1.79999C8 0.866658 9.93333 0.399994 12.4 0.399994C13.7333 0.399994 14.6667 0.566657 15.2 0.89999C15.7333 1.23332 16 1.86666 16 2.79999C16 3.86666 15.5 6.26666 14.5 9.99999C13.8333 12.6667 13.3 15 12.9 17C12.5 19 12.1667 21.4667 11.9 24.4C14.1 18.6667 16.5667 14 19.3 10.4C22.0333 6.79999 24.7 4.23333 27.3 2.69999C29.9667 1.16666 32.4 0.399994 34.6 0.399994C38.9333 0.399994 41.1 2.56666 41.1 6.89999C41.1 9.49999 40.3667 14.2 38.9 21C37.6333 26.8 37 30.6333 37 32.5C37 35.1667 37.9667 36.5 39.9 36.5C41.2333 36.5 42.8 35.7 44.6 34.1C46.4667 32.4333 48.9333 29.7667 52 26.1C52.8 25.1667 53.7 24.7 54.7 24.7C55.5667 24.7 56.2333 25.1 56.7 25.9C57.2333 26.7 57.5 27.8 57.5 29.2C57.5 31.8667 56.8667 33.9333 55.6 35.4C52.7333 38.9333 49.6333 41.8333 46.3 44.1C43.0333 46.3667 39.3 47.5 35.1 47.5C31.7 47.5 29.1333 46.5333 27.4 44.6C25.6667 42.6 24.8 39.7333 24.8 36C24.8 34.1333 25.2667 30.8 26.2 26C27.0667 21.8 27.5 18.9 27.5 17.3C27.5 16.2333 27.1333 15.7 26.4 15.7C25.5333 15.7 24.3 16.8333 22.7 19.1C21.1667 21.3 19.5667 24.2333 17.9 27.9C16.3 31.5667 15 35.4333 14 39.5C13.2667 42.6333 12.4 44.7667 11.4 45.9C10.4667 46.9667 8.96667 47.5 6.9 47.5Z" fill="#464646"/>
</svg>
